<?xml version="1.0" encoding="UTF-8" standalone="no"?>
<!-- Created with Inkscape (http://www.inkscape.org/) -->

<svg
   xmlns:dc="http://purl.org/dc/elements/1.1/"
   xmlns:cc="http://creativecommons.org/ns#"
   xmlns:rdf="http://www.w3.org/1999/02/22-rdf-syntax-ns#"
   xmlns:svg="http://www.w3.org/2000/svg"
   xmlns="http://www.w3.org/2000/svg"
   xmlns:sodipodi="http://sodipodi.sourceforge.net/DTD/sodipodi-0.dtd"
   xmlns:inkscape="http://www.inkscape.org/namespaces/inkscape"
   version="1.1"
   id="svg869"
   width="854"
   height="579"
   viewBox="0 0 854 579"
   sodipodi:docname="Kurdish_Language.svg"
   inkscape:version="0.92.4 5da689c313, 2019-01-14">
  <metadata
     id="metadata875">
    <rdf:RDF>
      <cc:Work
         rdf:about="">
        <dc:format>image/svg+xml</dc:format>
        <dc:type
           rdf:resource="http://purl.org/dc/dcmitype/StillImage" />
        <dc:title></dc:title>
      </cc:Work>
    </rdf:RDF>
  </metadata>
  <defs
     id="defs873" />
  <sodipodi:namedview
     pagecolor="#ffffff"
     bordercolor="#666666"
     borderopacity="1"
     objecttolerance="10"
     gridtolerance="10"
     guidetolerance="10"
     inkscape:pageopacity="0"
     inkscape:pageshadow="2"
     inkscape:window-width="1920"
     inkscape:window-height="1015"
     id="namedview871"
     showgrid="false"
     showguides="false"
     inkscape:zoom="0.51322265"
     inkscape:cx="1073.4983"
     inkscape:cy="307.63797"
     inkscape:window-x="0"
     inkscape:window-y="28"
     inkscape:window-maximized="1"
     inkscape:current-layer="svg869" />
  <path
     style="fill:#000000;stroke-width:1.33341122"
     d="M 852.52528,1.0152567 C 851.22071,1.337096 843.32666,6.9644383 834.18312,14.120034 824.42999,21.752668 812.25153,31.033189 807.1181,34.745067 784.39525,51.17546 697.72554,110.396 642.44676,147.26371 c -17.96704,11.98295 -35.89653,24.82941 -39.84457,28.54767 -7.6014,7.15897 -20.15666,23.95842 -20.15666,26.97135 0,3.09828 3.23515,1.99735 14.7874,-5.03174 6.16718,-3.75248 14.8132,-8.95615 19.2133,-11.56361 45.06332,-26.70429 117.56468,-73.6514 149.33704,-96.700715 15.11738,-10.966928 47.73874,-36.967533 57.56368,-45.88137 3.05963,-2.775888 10.30073,-11.407248 16.09017,-19.181534 10.28409,-13.809843 14.82923,-21.8333438 13.26005,-23.4026443 -0.0268,-0.0268227 -0.0849,-0.0273159 -0.17189,-0.00586 z M 580.63103,207.76759 c -1.14384,0.11737 -4.6471,10.02336 -10.80881,30.49121 -9.9834,33.16259 -11.07319,38.89525 -12.72878,66.99083 -3.35115,56.86912 -4.34569,61.86677 -14.52373,72.93671 l -6.24623,6.79362 -2.27153,-8.17071 c -3.99253,-14.36145 -16.03852,-23.74276 -26.9654,-21.00007 -7.53312,1.89083 -17.95981,16.18448 -27.00641,37.02506 -8.52174,19.63148 -7.0157,30.94808 4.92589,37.04067 5.86848,2.99411 21.12889,3.78632 27.35212,1.42006 4.37739,-1.66442 4.36472,-0.48178 -0.0899,8.3465 -5.44442,10.79 -23.72317,27.98929 -44.02044,41.42196 -9.64168,6.38083 -18.3425,12.58304 -19.33437,13.78258 -1.64288,1.98681 -1.19398,2.10194 5.04307,1.27746 21.86901,-2.89088 41.30413,-10.83718 49.65141,-20.29882 5.94215,-6.73541 20.74626,-35.16325 25.32864,-48.6375 1.38587,-4.07506 4.44451,-9.47558 6.79506,-12.00115 16.30428,-17.51832 33.30787,-55.02266 37.40312,-82.49819 0.7189,-4.82328 2.21099,-28.87165 3.31647,-53.44068 1.1055,-24.56904 2.60256,-49.77146 3.32624,-56.00539 0.72369,-6.23394 1.29541,-12.53455 1.27151,-14.00135 -0.0163,-1.00607 -0.15401,-1.49989 -0.41798,-1.4728 z m -343.39767,75.46429 c -3.1198,0.009 -7.86184,1.44791 -13.23855,4.22111 -23.83569,12.29395 -56.35583,42.34096 -73.38042,67.80146 -17.70927,26.48446 -24.25557,42.26988 -25.16457,60.6738 -0.54125,10.95798 -0.31799,12.40391 2.56255,16.63637 4.54865,6.6835 10.22425,10.01432 24.8384,14.57367 7.10571,2.21686 14.27021,4.98474 15.92024,6.15294 9.82482,6.95582 -5.55627,34.50818 -28.24081,50.58885 -23.37239,16.5683 -51.03391,24.18532 -76.085547,20.95123 -29.398862,-3.79529 -44.5378,-19.14543 -45.766565,-46.40875 -0.998846,-22.16206 6.35867,-48.16263 25.418491,-89.83092 12.636118,-27.62489 13.807094,-30.66898 11.789305,-30.66898 -1.755936,0 -6.825633,8.73661 -19.430087,33.48761 C 7.6429361,447.98924 -4.9665927,498.6051 1.781258,530.60531 c 5.8195502,27.59796 22.728071,43.34203 51.321365,47.78976 10.734599,1.66977 27.608701,-0.21721 39.588704,-4.42816 31.696793,-11.14137 60.757663,-42.01987 76.515243,-81.29884 8.25681,-20.58175 13.28437,-41.91566 14.17802,-60.15814 1.18092,-24.10611 -0.64307,-27.28206 -20.18596,-35.12448 -14.13882,-5.67379 -18.09412,-8.92507 -18.09412,-14.87448 0,-9.1673 18.82667,-30.82227 37.38749,-43.00218 10.46246,-6.86566 23.24582,-11.20258 33.84444,-11.48353 l 7.90055,-0.21095 4.38095,-8.61412 c 5.20355,-10.23153 12.48854,-29.6881 12.48854,-33.35478 0,-1.76417 -1.44661,-2.6209 -3.87312,-2.61353 z m 56.03435,66.942 c -0.12122,-0.0122 -0.22479,-0.002 -0.31056,0.0312 -1.9005,0.72935 -22.51803,46.12547 -22.51803,49.58094 0,1.00047 2.55134,3.90948 5.66808,6.46547 21.67606,17.77615 28.55078,30.26549 22.79735,41.41219 -3.41951,6.62497 -18.36544,21.44392 -34.13156,33.84115 -7.8835,6.19896 -14.33428,12.13049 -14.33428,13.18291 0,2.59861 -0.13939,2.62596 18.1488,-3.46908 18.73191,-6.24291 26.7594,-10.89498 32.59247,-18.88854 6.05892,-8.30307 14.05264,-24.68982 18.92617,-38.79671 3.90078,-11.29123 4.2436,-13.65639 4.2872,-29.60637 0.0431,-15.75444 -0.2505,-17.94289 -3.22273,-24.00231 -3.87758,-7.9051 -24.14497,-29.3744 -27.90291,-29.7509 z m 143.87209,1.1505 c -2.28699,0.009 -5.48847,7.54153 -11.42796,26.43223 -16.00307,50.89801 -18.14196,55.38857 -33.77804,70.9287 -6.32095,6.28219 -19.07491,17.50241 -28.34238,24.93404 -17.08329,13.69917 -23.03538,19.67697 -21.71919,21.80679 0.95724,1.54895 1.4176,1.51754 12.81471,-0.85164 12.80539,-2.66192 29.25927,-8.10055 38.5379,-12.73756 15.45875,-7.72549 22.03471,-20.24601 32.53583,-61.94346 5.30311,-21.05741 13.57792,-66.85458 12.30884,-68.12375 -0.29468,-0.2947 -0.60299,-0.4466 -0.92971,-0.44535 z"
     id="path913"
     inkscape:connector-curvature="0" />
  <text
     xml:space="preserve"
     style="font-style:normal;font-variant:normal;font-weight:normal;font-stretch:normal;font-size:149.2709198px;line-height:1.25;font-family:serif;-inkscape-font-specification:serif;letter-spacing:0px;word-spacing:0px;fill:#000000;fill-opacity:1;stroke:none;stroke-width:1.99916375"
     x="45.14201"
     y="158.17943"
     id="text883"
     transform="scale(0.96854429,1.0324773)"><tspan
       sodipodi:role="line"
       id="tspan881"
       x="45.14201"
       y="158.17943"
       style="font-style:normal;font-variant:normal;font-weight:normal;font-stretch:normal;font-family:serif;-inkscape-font-specification:serif;stroke-width:1.99916375">Kurdî</tspan></text>
</svg>
